<svg xmlns="http://www.w3.org/2000/svg" width="174" height="39.206" viewBox="0 0 174 39.206"><g transform="translate(-1046.633 662.923)"><g transform="translate(1120.99 -632.834)"><path d="M1162.753-616.167a.532.532,0,0,1,.582.566.534.534,0,0,1-.582.574.532.532,0,0,1-.574-.574A.538.538,0,0,1,1162.753-616.167Zm-.4,1.773h.81v4.938h-.81Z" transform="translate(-1162.179 616.167)" fill="#fff"/><path d="M1164.908-614.235h.861v-.937l.794-.549v1.486h1.156v.726h-1.156v2.3c0,.988.178,1.156,1.156,1.156v.76h-.118c-1.444,0-1.832-.422-1.832-1.908v-2.3h-.861Z" transform="translate(-1163.152 616.008)" fill="#fff"/><path d="M1173.632-611a2.5,2.5,0,0,1,2.516-2.575,2.223,2.223,0,0,1,1.815.92v-.819h.794v4.938h-.794v-.836a1.946,1.946,0,0,1-.8.693,2.3,2.3,0,0,1-1.013.245A2.512,2.512,0,0,1,1173.632-611Zm4.39-.008a1.8,1.8,0,0,0-1.8-1.832,1.8,1.8,0,0,0-1.781,1.832,1.8,1.8,0,0,0,1.781,1.832A1.8,1.8,0,0,0,1178.022-611Z" transform="translate(-1166.262 615.241)" fill="#fff"/><path d="M1183.287-615.445h.81v6.247h-.81Z" transform="translate(-1169.703 615.91)" fill="#fff"/><path d="M1186.317-615.445h.811v6.247h-.811Z" transform="translate(-1170.783 615.91)" fill="#fff"/><path d="M1191.932-609.455l.684-.448a1.674,1.674,0,0,0,1.418.76c.734,0,1.1-.38,1.1-.819,0-.506-.642-.608-1.308-.76-.811-.2-1.663-.456-1.663-1.427,0-.751.7-1.435,1.815-1.435a2.328,2.328,0,0,1,1.882.819l-.633.439a1.549,1.549,0,0,0-1.249-.574c-.667,0-1.013.329-1.013.734,0,.49.574.582,1.274.76.794.2,1.689.431,1.689,1.435a1.7,1.7,0,0,1-1.916,1.536A2.4,2.4,0,0,1,1191.932-609.455Z" transform="translate(-1172.785 615.246)" fill="#fff"/><path d="M1198.99-614.235h.861v-.937l.794-.549v1.486h1.156v.726h-1.156v2.3c0,.988.177,1.156,1.156,1.156v.76h-.118c-1.443,0-1.832-.422-1.832-1.908v-2.3h-.861Z" transform="translate(-1175.301 616.008)" fill="#fff"/><path d="M1204.186-611a2.5,2.5,0,0,1,2.516-2.575,2.225,2.225,0,0,1,1.815.92v-.819h.793v4.938h-.793v-.836a1.953,1.953,0,0,1-.8.693,2.3,2.3,0,0,1-1.013.245A2.512,2.512,0,0,1,1204.186-611Zm4.39-.008a1.8,1.8,0,0,0-1.8-1.832A1.8,1.8,0,0,0,1205-611a1.8,1.8,0,0,0,1.781,1.832A1.8,1.8,0,0,0,1208.576-611Z" transform="translate(-1177.153 615.241)" fill="#fff"/><path d="M1213.906-613.417h.794v.709a1.284,1.284,0,0,1,1.25-.718,1.865,1.865,0,0,1,.962.253l-.338.752a1.134,1.134,0,0,0-.751-.219c-.667,0-1.114.4-1.114,1.376,0,.05-.017.751.008,1.427v1.359h-.811Z" transform="translate(-1180.618 615.19)" fill="#fff"/><path d="M1219.154-614.235h.861v-.937l.793-.549v1.486h1.156v.726h-1.156v2.3c0,.988.177,1.156,1.156,1.156v.76h-.118c-1.443,0-1.832-.422-1.832-1.908v-2.3h-.861Z" transform="translate(-1182.489 616.008)" fill="#fff"/><path d="M1224.441-609.455l.683-.448a1.675,1.675,0,0,0,1.418.76c.734,0,1.1-.38,1.1-.819,0-.506-.642-.608-1.308-.76-.81-.2-1.663-.456-1.663-1.427,0-.751.7-1.435,1.815-1.435a2.328,2.328,0,0,1,1.882.819l-.633.439a1.55,1.55,0,0,0-1.25-.574c-.667,0-1.013.329-1.013.734,0,.49.574.582,1.275.76.793.2,1.688.431,1.688,1.435a1.7,1.7,0,0,1-1.916,1.536A2.4,2.4,0,0,1,1224.441-609.455Z" transform="translate(-1184.374 615.246)" fill="#fff"/><path d="M1234.883-613.412h.836l1.215,3.824,1.469-3.824h.743l1.469,3.841,1.258-3.841h.836l-1.68,4.938h-.776l-1.486-3.841-1.486,3.841h-.793Z" transform="translate(-1188.096 615.185)" fill="#fff"/><path d="M1248.6-616.167a.532.532,0,0,1,.582.566.534.534,0,0,1-.582.574.532.532,0,0,1-.574-.574A.538.538,0,0,1,1248.6-616.167Zm-.405,1.773h.81v4.938h-.81Z" transform="translate(-1192.781 616.167)" fill="#fff"/><path d="M1250.757-614.235h.861v-.937l.793-.549v1.486h1.157v.726h-1.157v2.3c0,.988.178,1.156,1.157,1.156v.76h-.118c-1.443,0-1.831-.422-1.831-1.908v-2.3h-.861Z" transform="translate(-1193.754 616.008)" fill="#fff"/><path d="M1256.529-615.445h.793v2.051a1.967,1.967,0,0,1,1.671-.844A2.018,2.018,0,0,1,1261.1-612v2.8h-.819v-2.761c0-.97-.473-1.562-1.443-1.562a1.506,1.506,0,0,0-1.5,1.587v2.736h-.81Z" transform="translate(-1195.812 615.91)" fill="#fff"/><path d="M1268.257-611a2.5,2.5,0,0,1,2.516-2.575,2.223,2.223,0,0,1,1.815.92v-.819h.793v4.938h-.793v-.836a1.949,1.949,0,0,1-.8.693,2.3,2.3,0,0,1-1.013.245A2.512,2.512,0,0,1,1268.257-611Zm4.389-.008a1.8,1.8,0,0,0-1.8-1.832,1.8,1.8,0,0,0-1.781,1.832,1.8,1.8,0,0,0,1.781,1.832A1.8,1.8,0,0,0,1272.646-611Z" transform="translate(-1199.993 615.241)" fill="#fff"/><path d="M1281.179-615.445h.81v6.247h-.81Z" transform="translate(-1204.599 615.91)" fill="#fff"/><path d="M1283.829-611a2.544,2.544,0,0,1,2.557-2.575,2.551,2.551,0,0,1,2.566,2.575,2.549,2.549,0,0,1-2.566,2.566A2.542,2.542,0,0,1,1283.829-611Zm4.322,0a1.79,1.79,0,0,0-1.765-1.831,1.781,1.781,0,0,0-1.747,1.831,1.78,1.78,0,0,0,1.747,1.824A1.788,1.788,0,0,0,1288.151-611Z" transform="translate(-1205.543 615.241)" fill="#fff"/><path d="M1292.959-611a2.5,2.5,0,0,1,2.516-2.575,2.2,2.2,0,0,1,1.815.937v-.835h.8v4.845a2.375,2.375,0,0,1-2.532,2.5,2.52,2.52,0,0,1-2.4-1.308l.709-.422a1.757,1.757,0,0,0,1.7,1,1.629,1.629,0,0,0,1.722-1.747v-.768a1.95,1.95,0,0,1-.8.693,2.294,2.294,0,0,1-1.013.245A2.512,2.512,0,0,1,1292.959-611Zm4.39-.008a1.8,1.8,0,0,0-1.8-1.832A1.8,1.8,0,0,0,1293.77-611a1.8,1.8,0,0,0,1.781,1.832A1.8,1.8,0,0,0,1297.349-611Z" transform="translate(-1208.798 615.241)" fill="#fff"/><path d="M1302.939-616.167a.532.532,0,0,1,.583.566.535.535,0,0,1-.583.574.532.532,0,0,1-.574-.574A.539.539,0,0,1,1302.939-616.167Zm-.4,1.773h.81v4.938h-.81Z" transform="translate(-1212.151 616.167)" fill="#fff"/><path d="M1305.264-611a2.542,2.542,0,0,1,2.592-2.575,2.447,2.447,0,0,1,2.313,1.5l-.718.3a1.688,1.688,0,0,0-1.6-1.064,1.775,1.775,0,0,0-1.772,1.831,1.784,1.784,0,0,0,1.8,1.824,1.71,1.71,0,0,0,1.6-1.123l.734.32a2.465,2.465,0,0,1-2.355,1.545A2.545,2.545,0,0,1,1305.264-611Z" transform="translate(-1213.184 615.241)" fill="#fff"/></g><g transform="translate(1078.672 -662.923)"><path d="M1124.068-658.211a2.19,2.19,0,0,0,2.369-2.342,2.21,2.21,0,0,0-2.369-2.369,2.223,2.223,0,0,0-2.37,2.369A2.163,2.163,0,0,0,1124.068-658.211Z" transform="translate(-1105.431 662.923)" fill="#e27407"/><g transform="translate(0 23.828)"><path d="M1107.162-625.9a5.808,5.808,0,0,1-2.7,2.833,5.618,5.618,0,0,1-2.134.425h-.114c-.041,0-.083,0-.124,0a4.708,4.708,0,0,1-2.01-.428,4.389,4.389,0,0,1-1.339-.916l-2.321,2.879a7.276,7.276,0,0,0,1.293.889l.017.007a9.189,9.189,0,0,0,4.415,1.023c.041,0,.085,0,.126,0a10.083,10.083,0,0,0,4.556-1.028c.008,0,.012-.007.02-.01a7.32,7.32,0,0,0,3.343-3.835Z" transform="translate(-1096.419 625.896)" fill="#e27407"/></g></g><g transform="translate(1046.632 -660.61)"><path d="M1050.423-659.328h-3.791v20.346h11.231v-3.623h-7.441Z" transform="translate(-1046.633 659.328)" fill="#fff"/><path d="M1073.154-653.566a8.4,8.4,0,0,0-8.446,8.5,8.428,8.428,0,0,0,8.446,8.473,8.444,8.444,0,0,0,8.444-8.473A8.415,8.415,0,0,0,1073.154-653.566Zm0,13.432a4.8,4.8,0,0,1-4.738-4.933,4.787,4.787,0,0,1,4.738-4.962,4.806,4.806,0,0,1,4.739,4.962A4.813,4.813,0,0,1,1073.154-640.134Z" transform="translate(-1053.076 657.274)" fill="#fff"/><path d="M1143.474-643.171a4.672,4.672,0,0,1-4.4,3.038,4.836,4.836,0,0,1-4.85-4.933,4.822,4.822,0,0,1,4.821-4.962,4.647,4.647,0,0,1,4.376,2.928l3.373-1.422a8.272,8.272,0,0,0-7.776-5.045,8.389,8.389,0,0,0-8.473,8.5,8.417,8.417,0,0,0,8.473,8.473,8.227,8.227,0,0,0,7.832-5.13Z" transform="translate(-1076.544 657.274)" fill="#fff"/><rect width="3.791" height="16.305" transform="translate(48.782 4.041)" fill="#fff"/><path d="M1109.341-653.238h-3.691v1.113a8.413,8.413,0,0,0-4.741-1.441,8.4,8.4,0,0,0-8.446,8.5,8.428,8.428,0,0,0,8.446,8.473,8.433,8.433,0,0,0,8.165-6.3,8.551,8.551,0,0,0,.268-1.7c.007-.156.012-.313.012-.472s-.005-.321-.012-.481Zm-8.432,13.1a4.8,4.8,0,0,1-4.738-4.933,4.787,4.787,0,0,1,4.738-4.962,4.806,4.806,0,0,1,4.738,4.962A4.813,4.813,0,0,1,1100.908-640.134Z" transform="translate(-1062.969 657.274)" fill="#fff"/></g><g transform="translate(1116.484 -660.609)"><path d="M1181.071-659.328l-5.38,17.867-6.019-17.867h-1.534l-6.078,17.867-5.183-17.867h-1.7l5.993,20.346h1.645l6.048-17.836,6.02,17.836h1.645l6.216-20.346Z" transform="translate(-1155.177 659.328)" fill="#fff"/><path d="M1207.923-653.566a8.44,8.44,0,0,0-8.474,8.5,8.418,8.418,0,0,0,8.474,8.473,8.417,8.417,0,0,0,8.474-8.473A8.44,8.44,0,0,0,1207.923-653.566Zm0,15.5a6.849,6.849,0,0,1-6.857-7,6.872,6.872,0,0,1,6.857-7.022,6.883,6.883,0,0,1,6.828,7.022A6.86,6.86,0,0,1,1207.923-638.07Z" transform="translate(-1170.959 657.274)" fill="#fff"/><path d="M1237.708-653.306a4.9,4.9,0,0,0-4.821,3.064v-2.9h-1.533v16.305h1.589v-9.56c0-3.455,1.81-5.436,4.709-5.436a3.974,3.974,0,0,1,2.481.839l.948-1.395A6.076,6.076,0,0,0,1237.708-653.306Z" transform="translate(-1182.332 657.181)" fill="#fff"/><path d="M1270.721-653.566a6.764,6.764,0,0,0-6.493,4.068c-.865-2.452-2.981-4.068-6.3-4.068a6.345,6.345,0,0,0-5.939,3.455v-3.122h-1.531v16.305h1.587v-9.224a5.615,5.615,0,0,1,5.771-5.966c3.4,0,5.518,2.146,5.518,5.351v9.839h1.589v-9.53a5.472,5.472,0,0,1,5.769-5.66,5.4,5.4,0,0,1,5.713,5.66v9.53H1278v-9.421C1278-650.641,1275.266-653.566,1270.721-653.566Z" transform="translate(-1189.142 657.274)" fill="#fff"/><path d="M1304.623-646.03c-2.34-.586-4.6-1.142-4.6-3.149,0-1.757,1.448-3.037,4.014-3.037a5.609,5.609,0,0,1,4.485,1.951l1.2-.977a7.5,7.5,0,0,0-5.684-2.369c-3.429,0-5.6,2.092-5.6,4.458,0,3.011,2.675,3.791,5.35,4.462,2.37.586,4.738,1.113,4.738,3.232,0,1.813-1.477,3.429-4.432,3.429a6.464,6.464,0,0,1-5.183-2.619l-1.254,1a7.869,7.869,0,0,0,6.41,3.037c4.154,0,6.049-2.537,6.049-4.85C1310.115-644.523,1307.328-645.362,1304.623-646.03Z" transform="translate(-1205.966 657.29)" fill="#fff"/></g></g></svg>